<?xml version="1.0" standalone="no"?>
<!DOCTYPE svg PUBLIC "-//W3C//DTD SVG 20010904//EN"
 "http://www.w3.org/TR/2001/REC-SVG-20010904/DTD/svg10.dtd">
<svg version="1.0" xmlns="http://www.w3.org/2000/svg"
 width="512.000000pt" height="487.000000pt" viewBox="0 0 512.000000 487.000000"
 preserveAspectRatio="xMidYMid meet">

<g transform="translate(0.000000,487.000000) scale(0.100000,-0.100000)"
fill="#000000" stroke="none">
<path d="M3242 4741 c-134 -39 -162 -59 -162 -112 0 -28 153 -349 167 -349 3
0 63 15 132 34 69 19 146 40 169 46 53 14 55 -1 -30 228 -52 139 -64 165 -89
177 -37 20 -44 19 -187 -24z"/>
<path d="M2897 4595 c-66 -25 -173 -85 -211 -119 -58 -54 -54 -67 94 -290 71
-108 131 -196 133 -196 1 0 1 18 -1 39 -5 54 12 100 53 143 37 38 56 47 147
72 l57 16 -44 98 c-94 210 -104 231 -124 241 -26 14 -57 13 -104 -4z"/>
<path d="M2436 4358 c-64 -42 -172 -152 -180 -183 -10 -38 5 -62 134 -215 67
-80 161 -191 208 -247 58 -71 92 -103 106 -103 33 0 347 37 350 41 8 9 -491
719 -512 728 -36 17 -55 13 -106 -21z"/>
<path d="M3329 4251 c-158 -43 -299 -85 -314 -95 -50 -33 -67 -107 -41 -171
19 -46 60 -69 168 -96 146 -36 266 -13 360 70 44 39 50 39 36 0 -15 -44 -5
-135 19 -167 11 -15 34 -36 51 -47 17 -11 31 -23 32 -26 0 -4 -53 -21 -117
-39 -209 -57 -323 -124 -495 -288 -90 -87 -150 -166 -203 -272 -36 -72 -78
-180 -72 -186 1 -2 51 -6 110 -10 103 -7 107 -8 107 -30 0 -19 -39 -320 -65
-496 -5 -33 -2 -38 17 -43 146 -31 344 -42 493 -26 61 7 114 16 118 20 5 5 3
46 -4 92 -30 210 -7 377 71 527 45 87 66 114 275 347 83 92 157 179 165 193 8
15 14 54 14 87 0 51 -14 100 -104 344 -112 306 -129 338 -205 372 -22 10 -60
18 -85 18 -25 -1 -174 -36 -331 -78z"/>
<path d="M2109 4056 c-46 -35 -117 -114 -138 -154 -18 -35 -7 -65 41 -107 24
-21 90 -83 148 -139 195 -188 217 -206 248 -206 19 0 60 21 120 61 l91 62 -31
41 c-116 149 -379 464 -393 470 -29 11 -41 7 -86 -28z"/>
<path d="M3050 3780 l82 -122 71 7 c40 4 88 9 107 10 43 2 110 24 110 35 0 4
-11 33 -25 63 l-26 55 -72 -5 c-79 -6 -218 22 -290 59 l-38 19 81 -121z"/>
<path d="M2040 3648 c-7 -18 -15 -80 -17 -138 l-5 -106 51 -149 c60 -173 81
-213 160 -298 32 -34 73 -84 90 -112 37 -59 71 -161 71 -216 0 -36 2 -38 36
-45 55 -10 241 2 322 21 82 19 77 11 87 146 l6 86 -96 5 c-53 3 -98 8 -102 12
-3 3 4 45 17 93 60 232 194 426 405 584 47 35 85 68 85 72 0 4 -15 5 -32 3
-18 -3 -116 -15 -217 -26 -207 -23 -222 -28 -360 -118 -141 -93 -156 -90 -326
68 -55 52 -114 107 -131 123 l-32 29 -12 -34z"/>
<path d="M590 3191 c0 -6 7 -11 16 -11 48 0 229 -98 213 -115 -4 -3 -36 -11
-73 -17 -36 -6 -66 -14 -66 -17 0 -3 27 -19 60 -35 33 -16 60 -32 60 -35 0 -3
-39 -6 -88 -6 -79 0 -92 -3 -141 -31 -30 -17 -61 -41 -70 -54 l-15 -22 44 23
c38 20 59 24 135 24 74 0 105 -6 174 -30 46 -17 86 -35 88 -41 2 -7 -55 -19
-166 -34 -94 -12 -168 -27 -165 -31 3 -5 10 -9 15 -9 5 0 26 -8 47 -17 l37
-16 -100 -11 -100 -11 100 -39 c55 -21 104 -43 110 -47 5 -5 -17 -10 -50 -10
-33 -1 -107 -4 -164 -8 l-104 -6 72 -40 c39 -22 71 -44 71 -48 0 -5 -36 -5
-80 -1 -44 3 -80 4 -80 2 0 -3 57 -22 128 -43 70 -21 131 -42 136 -47 6 -4 -5
-11 -23 -14 -42 -9 -24 -19 49 -28 30 -4 66 -10 78 -13 41 -10 3 -23 -68 -24
-36 0 -74 -4 -85 -8 -17 -7 36 -17 308 -58 71 -11 37 -23 -65 -24 -105 -1
-106 -4 -9 -29 51 -13 48 -19 -22 -41 l-52 -17 97 -1 c53 -1 100 -5 103 -11 4
-6 -8 -10 -28 -10 -40 0 -95 -17 -118 -37 -9 -8 -45 -29 -80 -48 -70 -38 -68
-39 41 -36 30 2 69 -4 85 -11 34 -15 145 -99 145 -110 0 -4 -33 6 -72 23 l-73
30 75 -70 c73 -68 74 -70 45 -70 -16 -1 -59 6 -94 14 -35 9 -66 13 -68 11 -6
-6 55 -45 126 -80 29 -15 51 -29 49 -31 -2 -3 -41 2 -87 11 -45 8 -86 14 -92
12 -6 -2 21 -21 60 -43 39 -22 71 -43 71 -47 0 -4 -24 -9 -52 -13 -29 -3 -105
-12 -168 -19 l-115 -14 74 -1 c43 0 71 -5 65 -10 -5 -4 -60 -21 -123 -36 -124
-31 -126 -38 -10 -50 57 -6 112 -2 273 21 38 6 47 4 41 -5 -13 -21 -96 -52
-179 -67 -44 -8 -81 -16 -84 -18 -9 -10 112 -18 164 -11 41 5 54 4 49 -5 -13
-22 -60 -33 -170 -40 -124 -9 -225 -37 -357 -100 l-83 -39 118 6 c66 3 117 2
117 -3 -1 -12 -156 -81 -199 -88 -18 -3 -50 -16 -70 -29 l-36 -22 38 -3 c20
-2 37 -5 37 -6 0 -2 -30 -35 -67 -73 -38 -38 -82 -94 -100 -124 -54 -91 -53
-96 13 -51 177 120 411 203 679 243 77 11 167 26 200 34 182 42 363 136 541
281 90 73 224 206 224 223 0 4 -29 27 -64 49 -158 103 -280 296 -341 542 -37
147 -44 193 -59 370 -16 182 -32 243 -90 338 -99 164 -274 258 -498 269 -78 4
-108 3 -108 -6z"/>
<path d="M1180 3064 c69 -73 128 -174 154 -264 9 -30 21 -118 26 -195 6 -78
14 -160 18 -184 l7 -43 100 -30 c204 -60 364 -141 527 -267 54 -42 136 -106
183 -142 237 -183 584 -301 1014 -344 203 -21 559 -16 689 9 183 36 398 120
597 235 114 66 166 82 290 90 l100 7 -57 27 c-72 35 -172 56 -268 57 -74 1
-75 1 -45 16 56 30 106 67 126 95 l20 28 -45 -25 c-54 -30 -135 -41 -193 -25
-50 14 -53 23 -15 49 40 28 60 34 132 41 l65 6 -32 18 c-18 9 -60 20 -94 24
-57 6 -60 7 -38 18 38 20 127 35 250 43 l114 7 -48 29 c-108 64 -237 90 -334
67 -26 -6 -106 -41 -178 -77 -99 -50 -149 -68 -210 -79 -127 -23 -209 -17
-164 11 14 8 53 94 46 101 -3 2 -47 -9 -99 -25 -395 -126 -823 -119 -1156 20
l-75 31 64 16 c73 18 114 45 159 101 36 45 32 47 -54 23 -45 -13 -102 -17
-216 -18 -222 0 -269 18 -457 178 -83 71 -223 143 -366 191 -105 35 -292 76
-343 76 -16 0 -24 5 -22 12 8 23 102 50 198 57 l95 6 -58 23 c-118 45 -209 64
-342 69 l-130 6 65 -69z"/>
<path d="M1685 1449 c-135 -137 -355 -283 -520 -347 -27 -10 -59 -22 -70 -26
-15 -6 3 -13 67 -26 93 -19 217 -69 303 -121 29 -18 100 -73 157 -122 208
-181 406 -280 643 -321 87 -16 185 -27 185 -22 0 2 -52 29 -116 60 -101 50
-128 69 -200 140 -46 46 -84 89 -84 96 0 9 6 8 23 -4 112 -80 262 -137 491
-186 83 -17 195 -48 250 -67 173 -60 407 -180 601 -308 l29 -20 -19 35 c-11
19 -59 73 -107 121 l-87 87 92 -39 c300 -129 597 -167 834 -108 51 13 57 29
10 29 -57 0 -237 61 -237 80 0 22 237 60 375 60 153 0 408 -37 518 -76 22 -8
43 -12 45 -9 9 9 -108 123 -191 186 -66 50 -172 108 -317 172 l-35 16 70 1
c92 1 142 13 234 57 l76 37 -90 7 c-89 6 -235 50 -235 70 0 18 84 69 164 100
44 17 139 46 210 64 147 36 146 44 -9 52 -118 6 -197 -9 -316 -62 -43 -19
-102 -41 -131 -49 -64 -19 -188 -37 -200 -30 -5 3 8 17 29 31 45 30 121 101
134 126 10 17 8 17 -28 -1 -58 -30 -228 -81 -323 -97 -253 -42 -634 -45 -860
-6 -297 52 -654 181 -1082 393 -110 54 -203 98 -206 98 -4 0 -38 -32 -77 -71z"/>
<path d="M835 1023 c-56 -7 -207 -34 -225 -41 -10 -4 25 -8 78 -8 119 -2 263
-26 385 -64 50 -16 93 -28 94 -26 6 6 -60 52 -107 76 -45 23 -179 71 -189 69
-3 -1 -19 -4 -36 -6z"/>
</g>
</svg>
